<svg xmlns="http://www.w3.org/2000/svg" xmlns:xlink="http://www.w3.org/1999/xlink" width="24.676" height="22.998" viewBox="0 0 24.676 22.998">
  <defs>
    <clipPath id="clip-path">
      <rect id="長方形_7678" data-name="長方形 7678" width="24.676" height="22.998"/>
    </clipPath>
  </defs>
  <g id="グループ_2702" data-name="グループ 2702" clip-path="url(#clip-path)">
    <path id="パス_4374" data-name="パス 4374" d="M21.112,1.919H19.323V.681a.682.682,0,0,0-1.364,0V1.918H6.778V.681a.682.682,0,0,0-1.364,0V1.918H3.848C.668,1.918,0,3.618,0,5.044V19.488C0,20.355,0,22.994,4,23H21.207c.858,0,3.47,0,3.47-3.711V5.146c0-1.962-1.3-3.137-3.565-3.226M3.848,3.281H5.414v1.4a.682.682,0,0,0,1.364,0v-1.4H17.96v1.4a.682.682,0,0,0,1.364,0v-1.4h1.748c2.009.084,2.241,1.1,2.241,1.864V6.731H1.364V5.044c0-1.252.719-1.763,2.484-1.763M21.207,21.635H4c-2.632,0-2.632-1.242-2.632-2.146V8.095H23.313V19.286c0,2.172-.953,2.348-2.106,2.348" transform="translate(0 0)"/>
    <path id="パス_4375" data-name="パス 4375" d="M8.558,14.5H6.091a.753.753,0,0,0-.753.753v2.211a.753.753,0,0,0,.753.753H8.558a.753.753,0,0,0,.753-.753V15.255a.753.753,0,0,0-.753-.753" transform="translate(-1.673 -4.544)"/>
    <path id="パス_4376" data-name="パス 4376" d="M18.126,14.5H15.659a.754.754,0,0,0-.753.753v2.211a.754.754,0,0,0,.753.753h2.467a.753.753,0,0,0,.753-.753V15.255a.753.753,0,0,0-.753-.753" transform="translate(-4.671 -4.544)"/>
    <path id="パス_4377" data-name="パス 4377" d="M28.041,14.5H25.574a.753.753,0,0,0-.753.753v2.211a.753.753,0,0,0,.753.753h2.467a.753.753,0,0,0,.753-.753V15.255a.753.753,0,0,0-.753-.753" transform="translate(-7.778 -4.544)"/>
    <path id="パス_4378" data-name="パス 4378" d="M8.558,23.215H6.091a.753.753,0,0,0-.753.753v2.211a.753.753,0,0,0,.753.753H8.558a.753.753,0,0,0,.753-.753V23.968a.753.753,0,0,0-.753-.753" transform="translate(-1.673 -7.275)"/>
    <path id="パス_4379" data-name="パス 4379" d="M18.126,23.215H15.659a.754.754,0,0,0-.753.753v2.211a.754.754,0,0,0,.753.753h2.467a.753.753,0,0,0,.753-.753V23.968a.753.753,0,0,0-.753-.753" transform="translate(-4.671 -7.275)"/>
    <path id="パス_4380" data-name="パス 4380" d="M28.041,23.215H25.574a.753.753,0,0,0-.753.753v2.211a.753.753,0,0,0,.753.753h2.467a.753.753,0,0,0,.753-.753V23.968a.753.753,0,0,0-.753-.753" transform="translate(-7.778 -7.275)"/>
  </g>
</svg>
