<svg xmlns="http://www.w3.org/2000/svg" xmlns:xlink="http://www.w3.org/1999/xlink" width="344" height="214.306" viewBox="0 0 344 214.306">
  <defs>
    <clipPath id="clip-path">
      <rect id="長方形_3166" data-name="長方形 3166" width="222.176" height="22.615" fill="none"/>
    </clipPath>
  </defs>
  <g id="グループ_14503" data-name="グループ 14503" transform="translate(-438.729 -498.526)">
    <g id="グループ_9883" data-name="グループ 9883" transform="translate(479.423 498.526)">
      <line id="線_117" data-name="線 117" x2="222.244" y2="0.688" transform="translate(20.092 23.982)" fill="none" stroke="#b7ce50" stroke-width="11"/>
      <path id="パス_29885" data-name="パス 29885" d="M17085.037,456.35h-4.051l-11.189-26.583h7.105Z" transform="translate(-17069.797 -429.767)"/>
      <path id="パス_29886" data-name="パス 29886" d="M17067.8,456.35h4.049l11.189-26.583h-7.1Z" transform="translate(-16820.094 -429.767)"/>
    </g>
    <g id="グループ_10262" data-name="グループ 10262" transform="translate(499.758 500.59)">
      <g id="グループ_10261" data-name="グループ 10261" transform="translate(0 0)" clip-path="url(#clip-path)">
        <path id="パス_27189" data-name="パス 27189" d="M6.612,21.8v-6.47q-1.256.569-2.536,1.031t-2.583.841A9.51,9.51,0,0,0,1.1,16.33q-.249-.5-.533-.971A3.967,3.967,0,0,0,0,14.6a30.365,30.365,0,0,0,4.55-1.422,31.921,31.921,0,0,0,4.242-2.062q-.451-.592-1.067-1.292a10.594,10.594,0,0,0-1.161-1.15l2.3-1.73a14.821,14.821,0,0,1,1.185,1.173q.663.723,1.185,1.363a16.157,16.157,0,0,0,3.982-4.005H9.266A22.281,22.281,0,0,1,6.245,7.963a24,24,0,0,1-3.52,1.991q-.142-.261-.438-.687T1.647,8.4a4.519,4.519,0,0,0-.628-.675A13.528,13.528,0,0,0,3.6,6.388a23.341,23.341,0,0,0,2.655-2A22.831,22.831,0,0,0,8.532,2.121,11.01,11.01,0,0,0,10.025,0l2.821,1q-.332.522-.676,1.02t-.722.971H18.2l1.232,1.09a19.407,19.407,0,0,1-3.39,4.8,27.193,27.193,0,0,1-4.6,3.828h8.911v9.1ZM9.551,19.2H17.42v-3.91H9.551Z" transform="translate(0 0)"/>
        <path id="パス_27190" data-name="パス 27190" d="M56.327,13.139h9.1v9.5h-9.1ZM59.076,20.2h3.6V15.675h-3.6Zm1.28-17.515H72.372v8.674H60.356Zm2.867,6.281h6.258V5.1H63.224Zm4.1,4.171h9.125v9.5H67.324ZM70.073,20.2h3.65V15.675h-3.65Z" transform="translate(-29.996 -1.431)"/>
        <path id="パス_27191" data-name="パス 27191" d="M121.64,23.619a4.59,4.59,0,0,0-.356-.9,7.767,7.767,0,0,0-.6-1.007,5.146,5.146,0,0,0-.676-.794,8.913,8.913,0,0,0,4.942-2.121,5.477,5.477,0,0,0,1.789-3.828,5.844,5.844,0,0,0-.64-3.129,6.172,6.172,0,0,0-4.787-3.247,33.309,33.309,0,0,1-.711,4.5,23.565,23.565,0,0,1-1.41,4.314,12.43,12.43,0,0,1-2.169,3.413,3.592,3.592,0,0,1-1.884,1.209,3.379,3.379,0,0,1-1.932-.261,4.612,4.612,0,0,1-1.754-1.351,6.53,6.53,0,0,1-1.162-2.192,7.651,7.651,0,0,1-.332-2.714,9.808,9.808,0,0,1,3.437-7.039,10.381,10.381,0,0,1,3.484-1.967,11.157,11.157,0,0,1,4.2-.545,9.433,9.433,0,0,1,3.389.806,8.85,8.85,0,0,1,4.634,4.835,8.207,8.207,0,0,1,.533,3.578,8.174,8.174,0,0,1-2.275,5.439,11.035,11.035,0,0,1-5.712,3m-7.7-4.787a.912.912,0,0,0,.545.19.819.819,0,0,0,.569-.285,8.371,8.371,0,0,0,1.576-2.417,19.693,19.693,0,0,0,1.208-3.531,23.582,23.582,0,0,0,.628-4.006,7.362,7.362,0,0,0-4.907,3.78,7.534,7.534,0,0,0-.829,3.093,4.468,4.468,0,0,0,.3,1.932,2.922,2.922,0,0,0,.913,1.244" transform="translate(-58.549 -3.166)"/>
        <path id="パス_27192" data-name="パス 27192" d="M181.264,23.466a24.306,24.306,0,0,1-2.347-.77,25.9,25.9,0,0,1-2.476-1.09,19.916,19.916,0,0,1-2.05-1.173l.972-1.114h-6.139l.972,1.114a16.752,16.752,0,0,1-2.026,1.161,27.04,27.04,0,0,1-2.488,1.078,24.184,24.184,0,0,1-2.382.77,7.559,7.559,0,0,0-.664-1.173,6.123,6.123,0,0,0-.853-1.055q.783-.165,1.742-.45t1.955-.663q1-.379,1.825-.782H164.84V9.1h15V19.319h-2.583q.829.4,1.825.782t1.979.663q.983.285,1.742.45a6.486,6.486,0,0,0-.865,1.055,6.642,6.642,0,0,0-.676,1.2M162.493,2.231h19.624V8.037H162.493Zm2.749,3.792h2.939V4.269h-2.939ZM167.684,12H177v-.972h-9.314Zm0,2.7H177V13.655h-9.314Zm0,2.726H177V16.357h-9.314Zm3.27-11.4h2.773V4.269h-2.773Zm5.547,0h2.915V4.269H176.5Z" transform="translate(-86.154 -1.188)"/>
        <path id="パス_27193" data-name="パス 27193" d="M221.254,23.362V18.645q-.688.262-1.6.569t-1.9.616q-.984.309-1.86.569t-1.494.427l-.805-2.607q.307-.048.829-.178l1.185-.3V4.922h-1.659V2.434h11.59V4.093H234.6a25.474,25.474,0,0,1-3.129,11.756,15.865,15.865,0,0,0,2.169,2.37,16.7,16.7,0,0,0,2.6,1.9,9.583,9.583,0,0,0-1.066,1.1,9.053,9.053,0,0,0-.877,1.2,23.478,23.478,0,0,1-2.371-1.944,19.826,19.826,0,0,1-2.062-2.251,21.307,21.307,0,0,1-4.432,4.219,8.967,8.967,0,0,0-.557-.747,11.089,11.089,0,0,0-.794-.889v2.56Zm-2.82-16.117h2.82V4.923h-2.82Zm0,4.669h2.82V9.591h-2.82Zm0,5.119q.829-.213,1.564-.415t1.257-.367V14.261h-2.82Zm5.641,3.057a17.5,17.5,0,0,0,2.347-1.919,16.515,16.515,0,0,0,1.9-2.2,22.451,22.451,0,0,1-1.79-3.875,22.91,22.91,0,0,1-1.055-4.326l2.536-.45a17.691,17.691,0,0,0,1.873,6.02,18.92,18.92,0,0,0,1.753-6.684h-6.47V4.922h-1.09Z" transform="translate(-113.748 -1.296)"/>
        <path id="パス_27194" data-name="パス 27194" d="M268.664,22.343V9.923q-.309.522-.628.984c-.213.308-.424.589-.628.841a4.865,4.865,0,0,0-.545-.6c-.237-.229-.482-.451-.734-.664a4.957,4.957,0,0,0-.664-.486,14.492,14.492,0,0,0,1.4-2.05q.687-1.2,1.3-2.513t1.079-2.572a20.115,20.115,0,0,0,.7-2.251l2.536.64a16.569,16.569,0,0,1-.533,1.766q-.344.96-.77,1.955v8.319a15.648,15.648,0,0,0,2-4.052,21.459,21.459,0,0,0,.983-4.693h-1.9V2.054H280.8V4.543h-4.053q-.047.64-.13,1.292t-.225,1.292h3.815a20.172,20.172,0,0,1-.949,6.4,18.106,18.106,0,0,1-2.536,5.013,18.723,18.723,0,0,1-3.555,3.709,3.751,3.751,0,0,0-.5-.557q-.356-.344-.759-.675a5.367,5.367,0,0,0-.735-.521v1.849Zm2.512-1.873a12.845,12.845,0,0,0,2.608-2.382,15.592,15.592,0,0,0,2.062-3.164q-.45-.332-1-.7t-.925-.581q-.237.379-.486.747c-.165.245-.336.478-.51.7a5.751,5.751,0,0,0-.805-.64q-.522-.356-.948-.593Zm5.688-8.082a13.067,13.067,0,0,0,.356-1.351q.142-.687.237-1.351h-1.73q-.142.426-.3.853t-.344.83q.331.166.829.462t.948.557m4.219-8.414H283.6v12.49h-2.512Zm1.4,18.25q-.048-.5-.189-1.292a10.7,10.7,0,0,0-.308-1.315h2.109a.962.962,0,0,0,.652-.154.962.962,0,0,0,.154-.652V.869h2.536V19.949a2.146,2.146,0,0,1-.64,1.742,3.033,3.033,0,0,1-1.967.533Z" transform="translate(-141.368 -0.324)"/>
        <path id="パス_27195" data-name="パス 27195" d="M331,29.171a11.518,11.518,0,0,1-2.7-.291,4.168,4.168,0,0,1-1.9-.939,2.223,2.223,0,0,1-.693-1.7,2.631,2.631,0,0,1,.529-1.6,5.332,5.332,0,0,1,1.459-1.313,13.78,13.78,0,0,1,2.115-1.085V22.1a1.236,1.236,0,0,0-.319-.939,1.28,1.28,0,0,0-.811-.337,3.766,3.766,0,0,0-1.6.237,4.294,4.294,0,0,0-1.513,1.057q-.219.219-.565.556t-.693.666q-.346.328-.6.546l-1.586-1.568a12.1,12.1,0,0,0,2.407-2.114,14.655,14.655,0,0,0,1.914-2.717q-1.021.037-1.86.064t-1.258.009l-.073-2.1q.62.055,1.723.055t2.4-.055a8.175,8.175,0,0,0,.474-2.261l2.17.11a8.77,8.77,0,0,1-.365,2q1.349-.109,2.507-.246a11.38,11.38,0,0,0,1.777-.319l.128,2.024q-.51.092-1.331.192t-1.814.192q-.994.091-2.032.164-.238.511-.539,1.03t-.629.993a3.954,3.954,0,0,1,1.477-.292,2.9,2.9,0,0,1,1.814.565,2.7,2.7,0,0,1,.92,1.86q1.021-.346,2.088-.629t2.069-.52l.62,2.005q-1.276.183-2.479.447t-2.242.593V25.8h-2.151v-1.6a6.814,6.814,0,0,0-1.459.9,1.253,1.253,0,0,0-.547.884q0,.62.747.866a7.814,7.814,0,0,0,2.279.246,13.4,13.4,0,0,0,1.395-.082q.774-.082,1.549-.219t1.359-.3q-.037.237-.064.683t-.028.884q0,.438.018.656a15.139,15.139,0,0,1-2.005.337,19.564,19.564,0,0,1-2.078.119" transform="translate(-171.538 -7.029)"/>
        <path id="パス_27196" data-name="パス 27196" d="M366.217,27.659a8.193,8.193,0,0,1-2.178-.265,3.658,3.658,0,0,1-1.641-.948,5.054,5.054,0,0,1-1.121-1.941l1.933-1.057a2.348,2.348,0,0,0,.966,1.44,3.623,3.623,0,0,0,2.042.492q1.166,0,2.407-.109t2.334-.31a11.716,11.716,0,0,0,1.8-.456q0,.292.046.766c.03.316.073.626.127.93s.107.541.155.711a11.472,11.472,0,0,1-1.86.4q-1.131.165-2.434.255t-2.58.092m-2.862-10.72-.018-2.206a7.394,7.394,0,0,0,1.322.255q.794.091,1.714.109t1.851-.028q.93-.045,1.714-.146a7.358,7.358,0,0,0,1.294-.264v2.224a6.824,6.824,0,0,1-1.24.237q-.784.091-1.714.137t-1.878.027q-.948-.018-1.75-.109a7.814,7.814,0,0,1-1.294-.237m10.319.4a8.071,8.071,0,0,0-.93-1.2A13.87,13.87,0,0,0,371.7,15.1l.984-.8a6.732,6.732,0,0,1,.666.638q.391.42.775.848a6.333,6.333,0,0,1,.583.739Zm1.623-1.386a7.736,7.736,0,0,0-.93-1.194,10.416,10.416,0,0,0-1.057-1.012l1-.82a7.178,7.178,0,0,1,.665.629q.392.41.775.839a6.3,6.3,0,0,1,.583.738Z" transform="translate(-192.39 -6.884)"/>
        <path id="パス_27197" data-name="パス 27197" d="M398.282,27.274a8.529,8.529,0,0,0-.875-.3,7.511,7.511,0,0,0-.875-.21,9.012,9.012,0,0,0,.547-1.23q.273-.739.483-1.541a12.885,12.885,0,0,0,.3-1.459l1.714.346a14.145,14.145,0,0,1-.3,1.486q-.209.83-.465,1.6a8.951,8.951,0,0,1-.529,1.3m1.477,1.8v-7.4q-.748.091-1.44.173t-1.2.119L396.86,20q.6,0,1.386-.055.31-.328.665-.766t.72-.948q-.621-.474-1.449-1.049t-1.5-.957l1.02-1.641q.182.109.383.237c.134.085.279.176.438.273q.255-.419.547-.93t.538-1q.245-.492.373-.82l1.86.729q-.4.729-.9,1.559t-.957,1.468c.146.1.283.194.41.292l.356.273q.492-.747.9-1.394t.647-1.085l1.751.912q-.365.638-.921,1.45T401.938,18.2q-.63.848-1.213,1.6.474-.036.9-.082l.793-.082a8.2,8.2,0,0,0-.4-1.021l1.659-.656a17.027,17.027,0,0,1,.747,1.787,4.884,4.884,0,0,0,2.005-1.9,7.221,7.221,0,0,0,.729-2.89H404.59V13.182h8.7q0,.912-.055,1.987t-.137,2.033a13.209,13.209,0,0,1-.209,1.559,2.362,2.362,0,0,1-.912,1.632,3.454,3.454,0,0,1-1.859.428h-.966a5.385,5.385,0,0,0-.091-.647q-.073-.373-.155-.729a3.691,3.691,0,0,0-.173-.574h1.039a1.452,1.452,0,0,0,.875-.191,1.116,1.116,0,0,0,.328-.684c.048-.243.091-.541.127-.893s.067-.72.092-1.1.036-.732.036-1.048h-2.115a8.943,8.943,0,0,1-.893,3.71,6.565,6.565,0,0,1-2.552,2.561q-.182-.255-.52-.647a4.434,4.434,0,0,0-.647-.629q.164.438.3.857t.209.747a6.407,6.407,0,0,0-.957.283,7.382,7.382,0,0,0-.884.374c-.024-.134-.058-.286-.1-.456s-.089-.346-.137-.529q-.256.036-.556.091t-.629.091v7.675Zm3.354-2.479q-.146-.4-.355-1.1t-.41-1.459q-.2-.756-.31-1.267l1.659-.438q.11.438.319,1.13t.438,1.358q.227.665.409,1.066a5.381,5.381,0,0,0-.893.3q-.492.21-.857.41m2.134-5.087h7.6v7.311h-7.6Zm1.951,5.505h3.683v-3.7H407.2Z" transform="translate(-211.165 -6.573)"/>
        <path id="パス_27198" data-name="パス 27198" d="M438.434,20.352a3.822,3.822,0,0,0-.374-.611,7.933,7.933,0,0,0-.538-.656,3.646,3.646,0,0,0-.547-.5,14.812,14.812,0,0,0,2.343-1.176,20.42,20.42,0,0,0,2.325-1.65,22.029,22.029,0,0,0,2.005-1.851,10.347,10.347,0,0,0,1.386-1.759l2.042.292a12.769,12.769,0,0,0,1.495,1.7,18.858,18.858,0,0,0,1.96,1.65,22.4,22.4,0,0,0,2.187,1.422,14.612,14.612,0,0,0,2.161,1.021,4.386,4.386,0,0,0-.583.583,9.317,9.317,0,0,0-.574.747,4.672,4.672,0,0,0-.392.656,15.61,15.61,0,0,1-2-1.057,22.879,22.879,0,0,1-2.024-1.413,20.726,20.726,0,0,1-1.841-1.613,13.2,13.2,0,0,1-1.45-1.677,11.185,11.185,0,0,1-1.449,1.613,25.285,25.285,0,0,1-1.978,1.668q-1.076.82-2.161,1.5a17.507,17.507,0,0,1-2,1.1m1.24,8.732a5.893,5.893,0,0,0-.583-.957,5.272,5.272,0,0,0-.8-.9,7.188,7.188,0,0,0,2.215-1.13,4.328,4.328,0,0,0,1.286-1.668,7.6,7.6,0,0,0,.565-2.361,26.412,26.412,0,0,0,.073-3.19h2.242a18.061,18.061,0,0,1-.374,4.886A7.423,7.423,0,0,1,442.681,27a8.535,8.535,0,0,1-3.008,2.087M447.6,18.875h2.242V28.921H447.6Z" transform="translate(-232.702 -6.469)"/>
      </g>
    </g>
    <text id="越前焼_河和田塗_九谷焼_輪島塗_その他漆芸品" data-name="越前焼･河和田塗
･九谷焼･輪島塗･
その他漆芸品" transform="translate(610.729 590.832)" font-size="42" font-family="ZenKakuGothicNew-Bold, Zen Kaku Gothic New" font-weight="700" letter-spacing="0.085em"><tspan x="-169.995" y="0">越前焼･河和田塗</tspan><tspan x="-171.78" y="55">･九谷焼･輪島塗･</tspan><tspan x="-134.925" y="110">その他漆芸品</tspan></text>
  </g>
</svg>
